solid OpenSCAD_Model
  facet normal -1 0 0
    outer loop
      vertex 10 0 0.5
      vertex 10 0.699997 2.5
      vertex 10 0.699997 0.5
    endloop
  endfacet
  facet normal -1 -0 0
    outer loop
      vertex 10 0.699997 2.5
      vertex 10 0 0.5
      vertex 10 0 2.5
    endloop
  endfacet
  facet normal 1 -0 0
    outer loop
      vertex 20 0 2.5
      vertex 20 0.699997 0.5
      vertex 20 0.699997 2.5
    endloop
  endfacet
  facet normal 1 0 0
    outer loop
      vertex 20 0.699997 0.5
      vertex 20 0 2.5
      vertex 20 0 0.5
    endloop
  endfacet
  facet normal -0 0 1
    outer loop
      vertex 15 2.5 0.5
      vertex 20 0.699997 0.5
      vertex 27.9904 5 0.5
    endloop
  endfacet
  facet normal 0 0 1
    outer loop
      vertex 15 2.5 0.5
      vertex 10 0.699997 0.5
      vertex 20 0.699997 0.5
    endloop
  endfacet
  facet normal 0 0 1
    outer loop
      vertex 2.00962 5 0.5
      vertex 10 0.699997 0.5
      vertex 15 2.5 0.5
    endloop
  endfacet
  facet normal 0 0 1
    outer loop
      vertex 0 0 0.5
      vertex 10 0.699997 0.5
      vertex 2.00962 5 0.5
    endloop
  endfacet
  facet normal 0 0 1
    outer loop
      vertex 10 0.699997 0.5
      vertex 0 0 0.5
      vertex 10 0 0.5
    endloop
  endfacet
  facet normal 0 0 1
    outer loop
      vertex 0 0 0.5
      vertex 2.00962 5 0.5
      vertex 0 15 0.5
    endloop
  endfacet
  facet normal 0 0 1
    outer loop
      vertex 30 15 0.5
      vertex 27.9904 10 0.5
      vertex 30 0 0.5
    endloop
  endfacet
  facet normal 0 0 1
    outer loop
      vertex 20 14.3 0.5
      vertex 30 15 0.5
      vertex 20 15 0.5
    endloop
  endfacet
  facet normal 0 0 1
    outer loop
      vertex 30 15 0.5
      vertex 10 15 0.5
      vertex 20 15 0.5
    endloop
  endfacet
  facet normal 0 0 1
    outer loop
      vertex 0 15 0.5
      vertex 10 14.3 0.5
      vertex 10 15 0.5
    endloop
  endfacet
  facet normal 0 0 1
    outer loop
      vertex 2.00966 10 0.5
      vertex 0 15 0.5
      vertex 2.00962 5 0.5
    endloop
  endfacet
  facet normal 0 0 1
    outer loop
      vertex 10 14.3 0.5
      vertex 0 15 0.5
      vertex 2.00966 10 0.5
    endloop
  endfacet
  facet normal -0 0 1
    outer loop
      vertex 0 15 0.5
      vertex 10 15 0.5
      vertex 30 15 0.5
    endloop
  endfacet
  facet normal -0 0 1
    outer loop
      vertex 27.9904 5 0.5
      vertex 30 0 0.5
      vertex 27.9904 10 0.5
    endloop
  endfacet
  facet normal -0 0 1
    outer loop
      vertex 20 0.699997 0.5
      vertex 30 0 0.5
      vertex 27.9904 5 0.5
    endloop
  endfacet
  facet normal 0 0 1
    outer loop
      vertex 30 0 0.5
      vertex 20 0.699997 0.5
      vertex 20 0 0.5
    endloop
  endfacet
  facet normal 0 0 1
    outer loop
      vertex 30 15 0.5
      vertex 20 14.3 0.5
      vertex 27.9904 10 0.5
    endloop
  endfacet
  facet normal 0 0 1
    outer loop
      vertex 20 14.3 0.5
      vertex 15 12.5 0.5
      vertex 27.9904 10 0.5
    endloop
  endfacet
  facet normal -0 0 1
    outer loop
      vertex 10 14.3 0.5
      vertex 15 12.5 0.5
      vertex 20 14.3 0.5
    endloop
  endfacet
  facet normal 0 0 1
    outer loop
      vertex 15 12.5 0.5
      vertex 10 14.3 0.5
      vertex 2.00966 10 0.5
    endloop
  endfacet
  facet normal 0 0 1
    outer loop
      vertex 26.1717 9.64999 0.5
      vertex 15 3.2 0.5
      vertex 26.1717 5.35 0.5
    endloop
  endfacet
  facet normal 0 0 1
    outer loop
      vertex 15 11.8 0.5
      vertex 15 3.2 0.5
      vertex 26.1717 9.64999 0.5
    endloop
  endfacet
  facet normal 0 0 1
    outer loop
      vertex 15 11.8 0.5
      vertex 3.8283 5.35001 0.5
      vertex 15 3.2 0.5
    endloop
  endfacet
  facet normal 0 -0 1
    outer loop
      vertex 3.8283 5.35001 0.5
      vertex 15 11.8 0.5
      vertex 3.82829 9.65 0.5
    endloop
  endfacet
  facet normal -0 0 1
    outer loop
      vertex 10 0.699997 2.5
      vertex 20 0 2.5
      vertex 20 0.699997 2.5
    endloop
  endfacet
  facet normal 0 0 1
    outer loop
      vertex 20 0 2.5
      vertex 10 0.699997 2.5
      vertex 10 0 2.5
    endloop
  endfacet
  facet normal 0 1 -0
    outer loop
      vertex 20 0.699997 0.5
      vertex 10 0.699997 2.5
      vertex 20 0.699997 2.5
    endloop
  endfacet
  facet normal 0 1 0
    outer loop
      vertex 10 0.699997 2.5
      vertex 20 0.699997 0.5
      vertex 10 0.699997 0.5
    endloop
  endfacet
  facet normal 0 -1 0
    outer loop
      vertex 0 0 0
      vertex 10 0 0.5
      vertex 0 0 0.5
    endloop
  endfacet
  facet normal 0 -1 -0
    outer loop
      vertex 10 0 0.5
      vertex 0 0 0
      vertex 20 0 0.5
    endloop
  endfacet
  facet normal 0 -1 0
    outer loop
      vertex 30 0 0
      vertex 20 0 0.5
      vertex 0 0 0
    endloop
  endfacet
  facet normal 0 -1 0
    outer loop
      vertex 20 0 0.5
      vertex 30 0 0
      vertex 30 0 0.5
    endloop
  endfacet
  facet normal 0 -1 0
    outer loop
      vertex 10 0 0.5
      vertex 20 0 2.5
      vertex 10 0 2.5
    endloop
  endfacet
  facet normal 0 -1 -0
    outer loop
      vertex 20 0 2.5
      vertex 10 0 0.5
      vertex 20 0 0.5
    endloop
  endfacet
  facet normal -1 0 0
    outer loop
      vertex 10 14.3 0.5
      vertex 10 15 2.5
      vertex 10 15 0.5
    endloop
  endfacet
  facet normal -1 -0 0
    outer loop
      vertex 10 15 2.5
      vertex 10 14.3 0.5
      vertex 10 14.3 2.5
    endloop
  endfacet
  facet normal 1 -0 0
    outer loop
      vertex 20 14.3 2.5
      vertex 20 15 0.5
      vertex 20 15 2.5
    endloop
  endfacet
  facet normal 1 0 0
    outer loop
      vertex 20 15 0.5
      vertex 20 14.3 2.5
      vertex 20 14.3 0.5
    endloop
  endfacet
  facet normal -0 0 1
    outer loop
      vertex 10 15 2.5
      vertex 20 14.3 2.5
      vertex 20 15 2.5
    endloop
  endfacet
  facet normal 0 0 1
    outer loop
      vertex 20 14.3 2.5
      vertex 10 15 2.5
      vertex 10 14.3 2.5
    endloop
  endfacet
  facet normal 0 1 -0
    outer loop
      vertex 20 15 0.5
      vertex 10 15 2.5
      vertex 20 15 2.5
    endloop
  endfacet
  facet normal 0 1 0
    outer loop
      vertex 10 15 2.5
      vertex 20 15 0.5
      vertex 10 15 0.5
    endloop
  endfacet
  facet normal 0 -1 0
    outer loop
      vertex 10 14.3 0.5
      vertex 20 14.3 2.5
      vertex 10 14.3 2.5
    endloop
  endfacet
  facet normal 0 -1 -0
    outer loop
      vertex 20 14.3 2.5
      vertex 10 14.3 0.5
      vertex 20 14.3 0.5
    endloop
  endfacet
  facet normal 0 0 1
    outer loop
      vertex 27.9904 10 2.4
      vertex 26.1717 5.35 2.4
      vertex 27.9904 5 2.4
    endloop
  endfacet
  facet normal 0 0 1
    outer loop
      vertex 27.9904 10 2.4
      vertex 26.1717 9.64999 2.4
      vertex 26.1717 5.35 2.4
    endloop
  endfacet
  facet normal 0 0 1
    outer loop
      vertex 15 12.5 2.4
      vertex 26.1717 9.64999 2.4
      vertex 27.9904 10 2.4
    endloop
  endfacet
  facet normal 0 0 1
    outer loop
      vertex 15 12.5 2.4
      vertex 15 11.8 2.4
      vertex 26.1717 9.64999 2.4
    endloop
  endfacet
  facet normal 0 0 1
    outer loop
      vertex 15 12.5 2.4
      vertex 3.82829 9.65 2.4
      vertex 15 11.8 2.4
    endloop
  endfacet
  facet normal 0 -0 1
    outer loop
      vertex 3.82829 9.65 2.4
      vertex 15 12.5 2.4
      vertex 2.00966 10 2.4
    endloop
  endfacet
  facet normal 0 0 1
    outer loop
      vertex 15 2.5 2.4
      vertex 26.1717 5.35 2.4
      vertex 15 3.2 2.4
    endloop
  endfacet
  facet normal 0 0 1
    outer loop
      vertex 26.1717 5.35 2.4
      vertex 15 2.5 2.4
      vertex 27.9904 5 2.4
    endloop
  endfacet
  facet normal 0 0 1
    outer loop
      vertex 3.8283 5.35001 2.4
      vertex 15 2.5 2.4
      vertex 15 3.2 2.4
    endloop
  endfacet
  facet normal 0 0 1
    outer loop
      vertex 2.00966 10 2.4
      vertex 3.8283 5.35001 2.4
      vertex 3.82829 9.65 2.4
    endloop
  endfacet
  facet normal 0 0 1
    outer loop
      vertex 3.8283 5.35001 2.4
      vertex 2.00962 5 2.4
      vertex 15 2.5 2.4
    endloop
  endfacet
  facet normal 0 0 1
    outer loop
      vertex 2.00962 5 2.4
      vertex 3.8283 5.35001 2.4
      vertex 2.00966 10 2.4
    endloop
  endfacet
  facet normal 0.188982 0.981981 -0
    outer loop
      vertex 27.9904 10 0.5
      vertex 15 12.5 2.4
      vertex 27.9904 10 2.4
    endloop
  endfacet
  facet normal 0.188982 0.981981 0
    outer loop
      vertex 15 12.5 2.4
      vertex 27.9904 10 0.5
      vertex 15 12.5 0.5
    endloop
  endfacet
  facet normal -0.188982 0.981981 0
    outer loop
      vertex 15 12.5 0.5
      vertex 2.00966 10 2.4
      vertex 15 12.5 2.4
    endloop
  endfacet
  facet normal -0.188982 0.981981 0
    outer loop
      vertex 2.00966 10 2.4
      vertex 15 12.5 0.5
      vertex 2.00966 10 0.5
    endloop
  endfacet
  facet normal -1 8.7738e-06 0
    outer loop
      vertex 2.00962 5 0.5
      vertex 2.00966 10 2.4
      vertex 2.00966 10 0.5
    endloop
  endfacet
  facet normal -1 8.7738e-06 0
    outer loop
      vertex 2.00966 10 2.4
      vertex 2.00962 5 0.5
      vertex 2.00962 5 2.4
    endloop
  endfacet
  facet normal -0.188982 -0.981981 0
    outer loop
      vertex 2.00962 5 0.5
      vertex 15 2.5 2.4
      vertex 2.00962 5 2.4
    endloop
  endfacet
  facet normal -0.188982 -0.981981 -0
    outer loop
      vertex 15 2.5 2.4
      vertex 2.00962 5 0.5
      vertex 15 2.5 0.5
    endloop
  endfacet
  facet normal 0.188982 -0.981981 0
    outer loop
      vertex 15 2.5 0.5
      vertex 27.9904 5 2.4
      vertex 15 2.5 2.4
    endloop
  endfacet
  facet normal 0.188982 -0.981981 0
    outer loop
      vertex 27.9904 5 2.4
      vertex 15 2.5 0.5
      vertex 27.9904 5 0.5
    endloop
  endfacet
  facet normal 1 -7.6294e-07 0
    outer loop
      vertex 27.9904 5 2.4
      vertex 27.9904 10 0.5
      vertex 27.9904 10 2.4
    endloop
  endfacet
  facet normal 1 -7.6294e-07 0
    outer loop
      vertex 27.9904 10 0.5
      vertex 27.9904 5 2.4
      vertex 27.9904 5 0.5
    endloop
  endfacet
  facet normal 0.188983 0.98198 -0
    outer loop
      vertex 15 3.2 0.5
      vertex 3.8283 5.35001 2.4
      vertex 15 3.2 2.4
    endloop
  endfacet
  facet normal 0.188983 0.98198 0
    outer loop
      vertex 3.8283 5.35001 2.4
      vertex 15 3.2 0.5
      vertex 3.8283 5.35001 0.5
    endloop
  endfacet
  facet normal 1 3.10499e-06 0
    outer loop
      vertex 3.8283 5.35001 2.4
      vertex 3.82829 9.65 0.5
      vertex 3.82829 9.65 2.4
    endloop
  endfacet
  facet normal 1 3.10499e-06 0
    outer loop
      vertex 3.82829 9.65 0.5
      vertex 3.8283 5.35001 2.4
      vertex 3.8283 5.35001 0.5
    endloop
  endfacet
  facet normal 0.188982 -0.981981 0
    outer loop
      vertex 3.82829 9.65 0.5
      vertex 15 11.8 2.4
      vertex 3.82829 9.65 2.4
    endloop
  endfacet
  facet normal 0.188982 -0.981981 0
    outer loop
      vertex 15 11.8 2.4
      vertex 3.82829 9.65 0.5
      vertex 15 11.8 0.5
    endloop
  endfacet
  facet normal -0.188983 -0.98198 0
    outer loop
      vertex 15 11.8 0.5
      vertex 26.1717 9.64999 2.4
      vertex 15 11.8 2.4
    endloop
  endfacet
  facet normal -0.188983 -0.98198 -0
    outer loop
      vertex 26.1717 9.64999 2.4
      vertex 15 11.8 0.5
      vertex 26.1717 9.64999 0.5
    endloop
  endfacet
  facet normal -1 -3.10499e-06 0
    outer loop
      vertex 26.1717 5.35 0.5
      vertex 26.1717 9.64999 2.4
      vertex 26.1717 9.64999 0.5
    endloop
  endfacet
  facet normal -1 -3.10499e-06 0
    outer loop
      vertex 26.1717 9.64999 2.4
      vertex 26.1717 5.35 0.5
      vertex 26.1717 5.35 2.4
    endloop
  endfacet
  facet normal -0.188982 0.981981 0
    outer loop
      vertex 26.1717 5.35 0.5
      vertex 15 3.2 2.4
      vertex 26.1717 5.35 2.4
    endloop
  endfacet
  facet normal -0.188982 0.981981 0
    outer loop
      vertex 15 3.2 2.4
      vertex 26.1717 5.35 0.5
      vertex 15 3.2 0.5
    endloop
  endfacet
  facet normal -1 0 0
    outer loop
      vertex 0 0 0
      vertex 0 15 0.5
      vertex 0 15 0
    endloop
  endfacet
  facet normal -1 -0 0
    outer loop
      vertex 0 15 0.5
      vertex 0 0 0
      vertex 0 0 0.5
    endloop
  endfacet
  facet normal 1 -0 0
    outer loop
      vertex 30 0 0.5
      vertex 30 15 0
      vertex 30 15 0.5
    endloop
  endfacet
  facet normal 1 0 0
    outer loop
      vertex 30 15 0
      vertex 30 0 0.5
      vertex 30 0 0
    endloop
  endfacet
  facet normal 0 0 -1
    outer loop
      vertex 0 0 0
      vertex 30 15 0
      vertex 30 0 0
    endloop
  endfacet
  facet normal -0 0 -1
    outer loop
      vertex 30 15 0
      vertex 0 0 0
      vertex 0 15 0
    endloop
  endfacet
  facet normal 0 1 -0
    outer loop
      vertex 30 15 0
      vertex 0 15 0.5
      vertex 30 15 0.5
    endloop
  endfacet
  facet normal 0 1 0
    outer loop
      vertex 0 15 0.5
      vertex 30 15 0
      vertex 0 15 0
    endloop
  endfacet
endsolid OpenSCAD_Model
