solid OpenSCAD_Model
  facet normal -0 0 1
    outer loop
      vertex 12.25 7.3 2.95
      vertex 16 6.6 2.95
      vertex 16 7.3 2.95
    endloop
  endfacet
  facet normal 0 0 1
    outer loop
      vertex 4.75 7.3 2.95
      vertex 12.25 7.3 2.95
      vertex 8.5 8.34998 2.95
    endloop
  endfacet
  facet normal -0 0 1
    outer loop
      vertex 4.75 7.3 2.95
      vertex 16 6.6 2.95
      vertex 12.25 7.3 2.95
    endloop
  endfacet
  facet normal 0 0 1
    outer loop
      vertex 1 6.6 2.95
      vertex 4.75 7.3 2.95
      vertex 1 7.3 2.95
    endloop
  endfacet
  facet normal 0 0 1
    outer loop
      vertex 4.75 7.3 2.95
      vertex 1 6.6 2.95
      vertex 16 6.6 2.95
    endloop
  endfacet
  facet normal 0 1 -0
    outer loop
      vertex 16 7.3 0.5
      vertex 12.25 7.3 2.95
      vertex 16 7.3 2.95
    endloop
  endfacet
  facet normal 0 1 0
    outer loop
      vertex 12.25 7.3 2.95
      vertex 16 7.3 0.5
      vertex 12.25 7.3 0.5
    endloop
  endfacet
  facet normal 0.269627 0.962965 -0
    outer loop
      vertex 12.25 7.3 0.5
      vertex 8.5 8.34998 2.95
      vertex 12.25 7.3 2.95
    endloop
  endfacet
  facet normal 0.269627 0.962965 0
    outer loop
      vertex 8.5 8.34998 2.95
      vertex 12.25 7.3 0.5
      vertex 8.5 8.34998 0.5
    endloop
  endfacet
  facet normal -0.269627 0.962965 0
    outer loop
      vertex 8.5 8.34998 0.5
      vertex 4.75 7.3 2.95
      vertex 8.5 8.34998 2.95
    endloop
  endfacet
  facet normal -0.269627 0.962965 0
    outer loop
      vertex 4.75 7.3 2.95
      vertex 8.5 8.34998 0.5
      vertex 4.75 7.3 0.5
    endloop
  endfacet
  facet normal 0 1 -0
    outer loop
      vertex 4.75 7.3 0.5
      vertex 1 7.3 2.95
      vertex 4.75 7.3 2.95
    endloop
  endfacet
  facet normal 0 1 0
    outer loop
      vertex 1 7.3 2.95
      vertex 4.75 7.3 0.5
      vertex 1 7.3 0.5
    endloop
  endfacet
  facet normal -1 0 0
    outer loop
      vertex 1 6.6 0.5
      vertex 1 7.3 2.95
      vertex 1 7.3 0.5
    endloop
  endfacet
  facet normal -1 -0 0
    outer loop
      vertex 1 7.3 2.95
      vertex 1 6.6 0.5
      vertex 1 6.6 2.95
    endloop
  endfacet
  facet normal 0 -1 0
    outer loop
      vertex 1 6.6 0.5
      vertex 16 6.6 2.95
      vertex 1 6.6 2.95
    endloop
  endfacet
  facet normal 0 -1 -0
    outer loop
      vertex 16 6.6 2.95
      vertex 1 6.6 0.5
      vertex 16 6.6 0.5
    endloop
  endfacet
  facet normal 1 -0 0
    outer loop
      vertex 16 6.6 2.95
      vertex 16 7.3 0.5
      vertex 16 7.3 2.95
    endloop
  endfacet
  facet normal 1 0 0
    outer loop
      vertex 16 7.3 0.5
      vertex 16 6.6 2.95
      vertex 16 6.6 0.5
    endloop
  endfacet
  facet normal 0 0 1
    outer loop
      vertex 16 13.4 2.95
      vertex 12.25 12.7 2.95
      vertex 16 12.7 2.95
    endloop
  endfacet
  facet normal 0 0 1
    outer loop
      vertex 12.25 12.7 2.95
      vertex 4.75 12.7 2.95
      vertex 8.5 11.65 2.95
    endloop
  endfacet
  facet normal 0 0 1
    outer loop
      vertex 16 13.4 2.95
      vertex 4.75 12.7 2.95
      vertex 12.25 12.7 2.95
    endloop
  endfacet
  facet normal -0 0 1
    outer loop
      vertex 1 13.4 2.95
      vertex 4.75 12.7 2.95
      vertex 16 13.4 2.95
    endloop
  endfacet
  facet normal 0 0 1
    outer loop
      vertex 4.75 12.7 2.95
      vertex 1 13.4 2.95
      vertex 1 12.7 2.95
    endloop
  endfacet
  facet normal 0 -1 0
    outer loop
      vertex 12.25 12.7 0.5
      vertex 16 12.7 2.95
      vertex 12.25 12.7 2.95
    endloop
  endfacet
  facet normal 0 -1 -0
    outer loop
      vertex 16 12.7 2.95
      vertex 12.25 12.7 0.5
      vertex 16 12.7 0.5
    endloop
  endfacet
  facet normal 0.269627 -0.962965 0
    outer loop
      vertex 8.5 11.65 0.5
      vertex 12.25 12.7 2.95
      vertex 8.5 11.65 2.95
    endloop
  endfacet
  facet normal 0.269627 -0.962965 0
    outer loop
      vertex 12.25 12.7 2.95
      vertex 8.5 11.65 0.5
      vertex 12.25 12.7 0.5
    endloop
  endfacet
  facet normal -0.269627 -0.962965 0
    outer loop
      vertex 4.75 12.7 0.5
      vertex 8.5 11.65 2.95
      vertex 4.75 12.7 2.95
    endloop
  endfacet
  facet normal -0.269627 -0.962965 -0
    outer loop
      vertex 8.5 11.65 2.95
      vertex 4.75 12.7 0.5
      vertex 8.5 11.65 0.5
    endloop
  endfacet
  facet normal 0 -1 0
    outer loop
      vertex 1 12.7 0.5
      vertex 4.75 12.7 2.95
      vertex 1 12.7 2.95
    endloop
  endfacet
  facet normal 0 -1 -0
    outer loop
      vertex 4.75 12.7 2.95
      vertex 1 12.7 0.5
      vertex 4.75 12.7 0.5
    endloop
  endfacet
  facet normal -1 0 0
    outer loop
      vertex 1 12.7 0.5
      vertex 1 13.4 2.95
      vertex 1 13.4 0.5
    endloop
  endfacet
  facet normal -1 -0 0
    outer loop
      vertex 1 13.4 2.95
      vertex 1 12.7 0.5
      vertex 1 12.7 2.95
    endloop
  endfacet
  facet normal 0 1 -0
    outer loop
      vertex 16 13.4 0.5
      vertex 1 13.4 2.95
      vertex 16 13.4 2.95
    endloop
  endfacet
  facet normal 0 1 0
    outer loop
      vertex 1 13.4 2.95
      vertex 16 13.4 0.5
      vertex 1 13.4 0.5
    endloop
  endfacet
  facet normal 1 -0 0
    outer loop
      vertex 16 12.7 2.95
      vertex 16 13.4 0.5
      vertex 16 13.4 2.95
    endloop
  endfacet
  facet normal 1 0 0
    outer loop
      vertex 16 13.4 0.5
      vertex 16 12.7 2.95
      vertex 16 12.7 0.5
    endloop
  endfacet
  facet normal 1 -0 0
    outer loop
      vertex 16 0 2.95
      vertex 16 0.699997 0.5
      vertex 16 0.699997 2.95
    endloop
  endfacet
  facet normal 1 0 0
    outer loop
      vertex 16 0.699997 0.5
      vertex 16 0 2.95
      vertex 16 0 0.5
    endloop
  endfacet
  facet normal 0 1 -0
    outer loop
      vertex 16 0.699997 0.5
      vertex 1.05 0.699997 2.95
      vertex 16 0.699997 2.95
    endloop
  endfacet
  facet normal 0 1 0
    outer loop
      vertex 1.05 0.699997 2.95
      vertex 16 0.699997 0.5
      vertex 1.05 0.699997 0.5
    endloop
  endfacet
  facet normal 0 -1 0
    outer loop
      vertex 0 0 2.95
      vertex 16 0 0.5
      vertex 16 0 2.95
    endloop
  endfacet
  facet normal 0 -1 0
    outer loop
      vertex 0 0 0
      vertex 16 0 0.5
      vertex 0 0 2.95
    endloop
  endfacet
  facet normal 0 -1 0
    outer loop
      vertex 17 0 0
      vertex 16 0 0.5
      vertex 0 0 0
    endloop
  endfacet
  facet normal 0 -1 0
    outer loop
      vertex 16 0 0.5
      vertex 17 0 0
      vertex 17 0 0.5
    endloop
  endfacet
  facet normal 0 0 1
    outer loop
      vertex 1.05 1 2.95
      vertex 0 1 2.95
      vertex 1.05 0.699997 2.95
    endloop
  endfacet
  facet normal -0 0 1
    outer loop
      vertex 1.05 0.699997 2.95
      vertex 16 0 2.95
      vertex 16 0.699997 2.95
    endloop
  endfacet
  facet normal 0 0 1
    outer loop
      vertex 1.05 0.699997 2.95
      vertex 0 0 2.95
      vertex 16 0 2.95
    endloop
  endfacet
  facet normal 0 0 1
    outer loop
      vertex 0 0 2.95
      vertex 1.05 0.699997 2.95
      vertex 0 1 2.95
    endloop
  endfacet
  facet normal -1 0 0
    outer loop
      vertex 1 19.3 0.5
      vertex 1 20 2.95
      vertex 1 20 0.5
    endloop
  endfacet
  facet normal -1 -0 0
    outer loop
      vertex 1 20 2.95
      vertex 1 19.3 0.5
      vertex 1 19.3 2.95
    endloop
  endfacet
  facet normal 1 -0 0
    outer loop
      vertex 16 19.3 2.95
      vertex 16 20 0.5
      vertex 16 20 2.95
    endloop
  endfacet
  facet normal 1 0 0
    outer loop
      vertex 16 20 0.5
      vertex 16 19.3 2.95
      vertex 16 19.3 0.5
    endloop
  endfacet
  facet normal 0 1 -0
    outer loop
      vertex 16 20 0.5
      vertex 1 20 2.95
      vertex 16 20 2.95
    endloop
  endfacet
  facet normal 0 1 0
    outer loop
      vertex 1 20 2.95
      vertex 16 20 0.5
      vertex 1 20 0.5
    endloop
  endfacet
  facet normal 0 -1 0
    outer loop
      vertex 1 19.3 0.5
      vertex 16 19.3 2.95
      vertex 1 19.3 2.95
    endloop
  endfacet
  facet normal 0 -1 -0
    outer loop
      vertex 16 19.3 2.95
      vertex 1 19.3 0.5
      vertex 16 19.3 0.5
    endloop
  endfacet
  facet normal -0 0 1
    outer loop
      vertex 1 20 2.95
      vertex 16 19.3 2.95
      vertex 16 20 2.95
    endloop
  endfacet
  facet normal 0 0 1
    outer loop
      vertex 16 19.3 2.95
      vertex 1 20 2.95
      vertex 1 19.3 2.95
    endloop
  endfacet
  facet normal -1 0 0
    outer loop
      vertex 0 20 0
      vertex 0 1 0.5
      vertex 0 20 0.5
    endloop
  endfacet
  facet normal -1 0 0
    outer loop
      vertex 0 0 0
      vertex 0 1 0.5
      vertex 0 20 0
    endloop
  endfacet
  facet normal -1 0 0
    outer loop
      vertex 0 0 2.95
      vertex 0 1 0.5
      vertex 0 0 0
    endloop
  endfacet
  facet normal -1 0 0
    outer loop
      vertex 0 1 0.5
      vertex 0 0 2.95
      vertex 0 1 2.95
    endloop
  endfacet
  facet normal 1 -0 0
    outer loop
      vertex 17 0 0.5
      vertex 17 20 0
      vertex 17 20 0.5
    endloop
  endfacet
  facet normal 1 0 0
    outer loop
      vertex 17 20 0
      vertex 17 0 0.5
      vertex 17 0 0
    endloop
  endfacet
  facet normal 0 0 -1
    outer loop
      vertex 0 0 0
      vertex 17 20 0
      vertex 17 0 0
    endloop
  endfacet
  facet normal -0 0 -1
    outer loop
      vertex 17 20 0
      vertex 0 0 0
      vertex 0 20 0
    endloop
  endfacet
  facet normal 0 0 1
    outer loop
      vertex 16 6.6 0.5
      vertex 1.05 1 0.5
      vertex 16 0.699997 0.5
    endloop
  endfacet
  facet normal -0 0 1
    outer loop
      vertex 1 6.6 0.5
      vertex 1.05 1 0.5
      vertex 16 6.6 0.5
    endloop
  endfacet
  facet normal 0 0 1
    outer loop
      vertex 1 7.3 0.5
      vertex 0 1 0.5
      vertex 1 6.6 0.5
    endloop
  endfacet
  facet normal 0 0 1
    outer loop
      vertex 1 6.6 0.5
      vertex 0 1 0.5
      vertex 1.05 1 0.5
    endloop
  endfacet
  facet normal -0 0 1
    outer loop
      vertex 12.25 12.7 0.5
      vertex 16 7.3 0.5
      vertex 16 12.7 0.5
    endloop
  endfacet
  facet normal 0 0 1
    outer loop
      vertex 12.25 12.7 0.5
      vertex 12.25 7.3 0.5
      vertex 16 7.3 0.5
    endloop
  endfacet
  facet normal -0 0 1
    outer loop
      vertex 8.5 11.65 0.5
      vertex 12.25 7.3 0.5
      vertex 12.25 12.7 0.5
    endloop
  endfacet
  facet normal 0 0 1
    outer loop
      vertex 8.5 11.65 0.5
      vertex 8.5 8.34998 0.5
      vertex 12.25 7.3 0.5
    endloop
  endfacet
  facet normal 0 0 1
    outer loop
      vertex 4.75 12.7 0.5
      vertex 8.5 8.34998 0.5
      vertex 8.5 11.65 0.5
    endloop
  endfacet
  facet normal 0 0 1
    outer loop
      vertex 4.75 12.7 0.5
      vertex 4.75 7.3 0.5
      vertex 8.5 8.34998 0.5
    endloop
  endfacet
  facet normal -0 0 1
    outer loop
      vertex 1 12.7 0.5
      vertex 4.75 7.3 0.5
      vertex 4.75 12.7 0.5
    endloop
  endfacet
  facet normal 0 0 1
    outer loop
      vertex 4.75 7.3 0.5
      vertex 1 12.7 0.5
      vertex 1 7.3 0.5
    endloop
  endfacet
  facet normal -0 0 1
    outer loop
      vertex 1 19.3 0.5
      vertex 16 13.4 0.5
      vertex 16 19.3 0.5
    endloop
  endfacet
  facet normal 0 0 1
    outer loop
      vertex 16 13.4 0.5
      vertex 1 19.3 0.5
      vertex 1 13.4 0.5
    endloop
  endfacet
  facet normal 0 0 1
    outer loop
      vertex 16 19.3 0.5
      vertex 17 20 0.5
      vertex 16 20 0.5
    endloop
  endfacet
  facet normal 0 0 1
    outer loop
      vertex 17 20 0.5
      vertex 1 20 0.5
      vertex 16 20 0.5
    endloop
  endfacet
  facet normal 0 0 1
    outer loop
      vertex 0 20 0.5
      vertex 1 19.3 0.5
      vertex 1 20 0.5
    endloop
  endfacet
  facet normal 0 0 1
    outer loop
      vertex 1 19.3 0.5
      vertex 0 20 0.5
      vertex 1 13.4 0.5
    endloop
  endfacet
  facet normal 0 0 1
    outer loop
      vertex 1 13.4 0.5
      vertex 0 20 0.5
      vertex 1 12.7 0.5
    endloop
  endfacet
  facet normal 0 0 1
    outer loop
      vertex 0 1 0.5
      vertex 1 12.7 0.5
      vertex 0 20 0.5
    endloop
  endfacet
  facet normal 0 0 1
    outer loop
      vertex 1 12.7 0.5
      vertex 0 1 0.5
      vertex 1 7.3 0.5
    endloop
  endfacet
  facet normal -0 0 1
    outer loop
      vertex 0 20 0.5
      vertex 1 20 0.5
      vertex 17 20 0.5
    endloop
  endfacet
  facet normal 0 0 1
    outer loop
      vertex 16 13.4 0.5
      vertex 17 20 0.5
      vertex 16 19.3 0.5
    endloop
  endfacet
  facet normal 0 0 1
    outer loop
      vertex 16 12.7 0.5
      vertex 17 20 0.5
      vertex 16 13.4 0.5
    endloop
  endfacet
  facet normal 0 0 1
    outer loop
      vertex 17 20 0.5
      vertex 16 12.7 0.5
      vertex 17 0 0.5
    endloop
  endfacet
  facet normal -0 0 1
    outer loop
      vertex 16 7.3 0.5
      vertex 17 0 0.5
      vertex 16 12.7 0.5
    endloop
  endfacet
  facet normal -0 0 1
    outer loop
      vertex 16 6.6 0.5
      vertex 17 0 0.5
      vertex 16 7.3 0.5
    endloop
  endfacet
  facet normal -0 0 1
    outer loop
      vertex 16 0.699997 0.5
      vertex 17 0 0.5
      vertex 16 6.6 0.5
    endloop
  endfacet
  facet normal 0 0 1
    outer loop
      vertex 17 0 0.5
      vertex 16 0.699997 0.5
      vertex 16 0 0.5
    endloop
  endfacet
  facet normal 0 0 1
    outer loop
      vertex 16 0.699997 0.5
      vertex 1.05 1 0.5
      vertex 1.05 0.699997 0.5
    endloop
  endfacet
  facet normal 0 1 -0
    outer loop
      vertex 17 20 0
      vertex 0 20 0.5
      vertex 17 20 0.5
    endloop
  endfacet
  facet normal 0 1 0
    outer loop
      vertex 0 20 0.5
      vertex 17 20 0
      vertex 0 20 0
    endloop
  endfacet
  facet normal 1 -0 0
    outer loop
      vertex 1.05 0.699997 2.95
      vertex 1.05 1 0.5
      vertex 1.05 1 2.95
    endloop
  endfacet
  facet normal 1 0 0
    outer loop
      vertex 1.05 1 0.5
      vertex 1.05 0.699997 2.95
      vertex 1.05 0.699997 0.5
    endloop
  endfacet
  facet normal 0 1 -0
    outer loop
      vertex 1.05 1 0.5
      vertex 0 1 2.95
      vertex 1.05 1 2.95
    endloop
  endfacet
  facet normal 0 1 0
    outer loop
      vertex 0 1 2.95
      vertex 1.05 1 0.5
      vertex 0 1 0.5
    endloop
  endfacet
endsolid OpenSCAD_Model
