solid OpenSCAD_Model
  facet normal -0 0 1
    outer loop
      vertex 1 11.575 2.45
      vertex 4.33333 11.225 2.45
      vertex 4.33333 11.575 2.45
    endloop
  endfacet
  facet normal 0 0 1
    outer loop
      vertex 4.33333 11.225 2.45
      vertex 1 11.575 2.45
      vertex 4.28333 10.875 2.45
    endloop
  endfacet
  facet normal 0 0 1
    outer loop
      vertex 4.28333 10.875 2.45
      vertex 1 11.575 2.45
      vertex 1 10.875 2.45
    endloop
  endfacet
  facet normal 0 0 1
    outer loop
      vertex 10.9 11.575 2.45
      vertex 7.61665 10.875 2.45
      vertex 10.9 10.875 2.45
    endloop
  endfacet
  facet normal 0 0 1
    outer loop
      vertex 7.56665 11.225 2.45
      vertex 10.9 11.575 2.45
      vertex 7.56665 11.575 2.45
    endloop
  endfacet
  facet normal 0 0 1
    outer loop
      vertex 10.9 11.575 2.45
      vertex 7.56665 11.225 2.45
      vertex 7.61665 10.875 2.45
    endloop
  endfacet
  facet normal 0 0 1
    outer loop
      vertex 4.28333 10.875 2.45
      vertex 7.61665 10.875 2.45
      vertex 7.56665 11.225 2.45
    endloop
  endfacet
  facet normal 0 0 1
    outer loop
      vertex 4.28333 10.875 2.45
      vertex 7.56665 11.225 2.45
      vertex 4.33333 11.225 2.45
    endloop
  endfacet
  facet normal 0 0 1
    outer loop
      vertex 7.61665 10.875 2.45
      vertex 4.28333 10.875 2.45
      vertex 7.61665 10.525 2.45
    endloop
  endfacet
  facet normal 0 0 1
    outer loop
      vertex 7.61665 10.525 2.45
      vertex 4.28333 10.875 2.45
      vertex 4.28333 10.525 2.45
    endloop
  endfacet
  facet normal 0 -1 0
    outer loop
      vertex 7.61665 10.875 0.5
      vertex 10.9 10.875 2.45
      vertex 7.61665 10.875 2.45
    endloop
  endfacet
  facet normal 0 -1 -0
    outer loop
      vertex 10.9 10.875 2.45
      vertex 7.61665 10.875 0.5
      vertex 10.9 10.875 0.5
    endloop
  endfacet
  facet normal 1 -0 0
    outer loop
      vertex 10.9 10.875 2.45
      vertex 10.9 11.575 0.5
      vertex 10.9 11.575 2.45
    endloop
  endfacet
  facet normal 1 0 0
    outer loop
      vertex 10.9 11.575 0.5
      vertex 10.9 10.875 2.45
      vertex 10.9 10.875 0.5
    endloop
  endfacet
  facet normal 0 1 -0
    outer loop
      vertex 10.9 11.575 0.5
      vertex 7.56665 11.575 2.45
      vertex 10.9 11.575 2.45
    endloop
  endfacet
  facet normal 0 1 0
    outer loop
      vertex 7.56665 11.575 2.45
      vertex 10.9 11.575 0.5
      vertex 7.56665 11.575 0.5
    endloop
  endfacet
  facet normal -1 0 0
    outer loop
      vertex 7.56665 11.225 0.5
      vertex 7.56665 11.575 2.45
      vertex 7.56665 11.575 0.5
    endloop
  endfacet
  facet normal -1 -0 0
    outer loop
      vertex 7.56665 11.575 2.45
      vertex 7.56665 11.225 0.5
      vertex 7.56665 11.225 2.45
    endloop
  endfacet
  facet normal 0 1 -0
    outer loop
      vertex 7.56665 11.225 0.5
      vertex 4.33333 11.225 2.45
      vertex 7.56665 11.225 2.45
    endloop
  endfacet
  facet normal 0 1 0
    outer loop
      vertex 4.33333 11.225 2.45
      vertex 7.56665 11.225 0.5
      vertex 4.33333 11.225 0.5
    endloop
  endfacet
  facet normal 1 -0 0
    outer loop
      vertex 4.33333 11.225 2.45
      vertex 4.33333 11.575 0.5
      vertex 4.33333 11.575 2.45
    endloop
  endfacet
  facet normal 1 0 0
    outer loop
      vertex 4.33333 11.575 0.5
      vertex 4.33333 11.225 2.45
      vertex 4.33333 11.225 0.5
    endloop
  endfacet
  facet normal 0 1 -0
    outer loop
      vertex 4.33333 11.575 0.5
      vertex 1 11.575 2.45
      vertex 4.33333 11.575 2.45
    endloop
  endfacet
  facet normal 0 1 0
    outer loop
      vertex 1 11.575 2.45
      vertex 4.33333 11.575 0.5
      vertex 1 11.575 0.5
    endloop
  endfacet
  facet normal -1 0 0
    outer loop
      vertex 1 10.875 0.5
      vertex 1 11.575 2.45
      vertex 1 11.575 0.5
    endloop
  endfacet
  facet normal -1 -0 0
    outer loop
      vertex 1 11.575 2.45
      vertex 1 10.875 0.5
      vertex 1 10.875 2.45
    endloop
  endfacet
  facet normal 0 -1 0
    outer loop
      vertex 1 10.875 0.5
      vertex 4.28333 10.875 2.45
      vertex 1 10.875 2.45
    endloop
  endfacet
  facet normal 0 -1 -0
    outer loop
      vertex 4.28333 10.875 2.45
      vertex 1 10.875 0.5
      vertex 4.28333 10.875 0.5
    endloop
  endfacet
  facet normal -1 0 0
    outer loop
      vertex 4.28333 10.525 0.5
      vertex 4.28333 10.875 2.45
      vertex 4.28333 10.875 0.5
    endloop
  endfacet
  facet normal -1 -0 0
    outer loop
      vertex 4.28333 10.875 2.45
      vertex 4.28333 10.525 0.5
      vertex 4.28333 10.525 2.45
    endloop
  endfacet
  facet normal 0 -1 0
    outer loop
      vertex 4.28333 10.525 0.5
      vertex 7.61665 10.525 2.45
      vertex 4.28333 10.525 2.45
    endloop
  endfacet
  facet normal 0 -1 -0
    outer loop
      vertex 7.61665 10.525 2.45
      vertex 4.28333 10.525 0.5
      vertex 7.61665 10.525 0.5
    endloop
  endfacet
  facet normal 1 -0 0
    outer loop
      vertex 7.61665 10.525 2.45
      vertex 7.61665 10.875 0.5
      vertex 7.61665 10.875 2.45
    endloop
  endfacet
  facet normal 1 0 0
    outer loop
      vertex 7.61665 10.875 0.5
      vertex 7.61665 10.525 2.45
      vertex 7.61665 10.525 0.5
    endloop
  endfacet
  facet normal 0 0 1
    outer loop
      vertex 4.28333 4.12501 2.45
      vertex 7.61665 4.12501 2.45
      vertex 7.61665 4.47499 2.45
    endloop
  endfacet
  facet normal 0 0 1
    outer loop
      vertex 7.61665 4.12501 2.45
      vertex 4.28333 4.12501 2.45
      vertex 7.56665 3.77501 2.45
    endloop
  endfacet
  facet normal 0 0 1
    outer loop
      vertex 4.28333 4.12501 2.45
      vertex 7.61665 4.47499 2.45
      vertex 4.28333 4.47499 2.45
    endloop
  endfacet
  facet normal 0 0 1
    outer loop
      vertex 7.56665 3.77501 2.45
      vertex 4.28333 4.12501 2.45
      vertex 4.33333 3.77501 2.45
    endloop
  endfacet
  facet normal 0 0 1
    outer loop
      vertex 1 3.425 2.45
      vertex 4.33333 3.77501 2.45
      vertex 4.28333 4.12501 2.45
    endloop
  endfacet
  facet normal 0 0 1
    outer loop
      vertex 1 3.425 2.45
      vertex 4.28333 4.12501 2.45
      vertex 1 4.12501 2.45
    endloop
  endfacet
  facet normal 0 0 1
    outer loop
      vertex 4.33333 3.77501 2.45
      vertex 1 3.425 2.45
      vertex 4.33333 3.425 2.45
    endloop
  endfacet
  facet normal -0 0 1
    outer loop
      vertex 7.61665 4.12501 2.45
      vertex 10.9 3.425 2.45
      vertex 10.9 4.12501 2.45
    endloop
  endfacet
  facet normal -0 0 1
    outer loop
      vertex 7.56665 3.77501 2.45
      vertex 10.9 3.425 2.45
      vertex 7.61665 4.12501 2.45
    endloop
  endfacet
  facet normal 0 0 1
    outer loop
      vertex 10.9 3.425 2.45
      vertex 7.56665 3.77501 2.45
      vertex 7.56665 3.425 2.45
    endloop
  endfacet
  facet normal 0 1 -0
    outer loop
      vertex 10.9 4.12501 0.5
      vertex 7.61665 4.12501 2.45
      vertex 10.9 4.12501 2.45
    endloop
  endfacet
  facet normal 0 1 0
    outer loop
      vertex 7.61665 4.12501 2.45
      vertex 10.9 4.12501 0.5
      vertex 7.61665 4.12501 0.5
    endloop
  endfacet
  facet normal 1 -0 0
    outer loop
      vertex 10.9 3.425 2.45
      vertex 10.9 4.12501 0.5
      vertex 10.9 4.12501 2.45
    endloop
  endfacet
  facet normal 1 0 0
    outer loop
      vertex 10.9 4.12501 0.5
      vertex 10.9 3.425 2.45
      vertex 10.9 3.425 0.5
    endloop
  endfacet
  facet normal 0 -1 0
    outer loop
      vertex 7.56665 3.425 0.5
      vertex 10.9 3.425 2.45
      vertex 7.56665 3.425 2.45
    endloop
  endfacet
  facet normal 0 -1 -0
    outer loop
      vertex 10.9 3.425 2.45
      vertex 7.56665 3.425 0.5
      vertex 10.9 3.425 0.5
    endloop
  endfacet
  facet normal -1 0 0
    outer loop
      vertex 7.56665 3.425 0.5
      vertex 7.56665 3.77501 2.45
      vertex 7.56665 3.77501 0.5
    endloop
  endfacet
  facet normal -1 -0 0
    outer loop
      vertex 7.56665 3.77501 2.45
      vertex 7.56665 3.425 0.5
      vertex 7.56665 3.425 2.45
    endloop
  endfacet
  facet normal 0 -1 0
    outer loop
      vertex 4.33333 3.77501 0.5
      vertex 7.56665 3.77501 2.45
      vertex 4.33333 3.77501 2.45
    endloop
  endfacet
  facet normal 0 -1 -0
    outer loop
      vertex 7.56665 3.77501 2.45
      vertex 4.33333 3.77501 0.5
      vertex 7.56665 3.77501 0.5
    endloop
  endfacet
  facet normal 1 -0 0
    outer loop
      vertex 4.33333 3.425 2.45
      vertex 4.33333 3.77501 0.5
      vertex 4.33333 3.77501 2.45
    endloop
  endfacet
  facet normal 1 0 0
    outer loop
      vertex 4.33333 3.77501 0.5
      vertex 4.33333 3.425 2.45
      vertex 4.33333 3.425 0.5
    endloop
  endfacet
  facet normal 0 -1 0
    outer loop
      vertex 1 3.425 0.5
      vertex 4.33333 3.425 2.45
      vertex 1 3.425 2.45
    endloop
  endfacet
  facet normal 0 -1 -0
    outer loop
      vertex 4.33333 3.425 2.45
      vertex 1 3.425 0.5
      vertex 4.33333 3.425 0.5
    endloop
  endfacet
  facet normal -1 0 0
    outer loop
      vertex 1 3.425 0.5
      vertex 1 4.12501 2.45
      vertex 1 4.12501 0.5
    endloop
  endfacet
  facet normal -1 -0 0
    outer loop
      vertex 1 4.12501 2.45
      vertex 1 3.425 0.5
      vertex 1 3.425 2.45
    endloop
  endfacet
  facet normal 0 1 -0
    outer loop
      vertex 4.28333 4.12501 0.5
      vertex 1 4.12501 2.45
      vertex 4.28333 4.12501 2.45
    endloop
  endfacet
  facet normal 0 1 0
    outer loop
      vertex 1 4.12501 2.45
      vertex 4.28333 4.12501 0.5
      vertex 1 4.12501 0.5
    endloop
  endfacet
  facet normal -1 0 0
    outer loop
      vertex 4.28333 4.12501 0.5
      vertex 4.28333 4.47499 2.45
      vertex 4.28333 4.47499 0.5
    endloop
  endfacet
  facet normal -1 -0 0
    outer loop
      vertex 4.28333 4.47499 2.45
      vertex 4.28333 4.12501 0.5
      vertex 4.28333 4.12501 2.45
    endloop
  endfacet
  facet normal 0 1 -0
    outer loop
      vertex 7.61665 4.47499 0.5
      vertex 4.28333 4.47499 2.45
      vertex 7.61665 4.47499 2.45
    endloop
  endfacet
  facet normal 0 1 0
    outer loop
      vertex 4.28333 4.47499 2.45
      vertex 7.61665 4.47499 0.5
      vertex 4.28333 4.47499 0.5
    endloop
  endfacet
  facet normal 1 -0 0
    outer loop
      vertex 7.61665 4.12501 2.45
      vertex 7.61665 4.47499 0.5
      vertex 7.61665 4.47499 2.45
    endloop
  endfacet
  facet normal 1 0 0
    outer loop
      vertex 7.61665 4.47499 0.5
      vertex 7.61665 4.12501 2.45
      vertex 7.61665 4.12501 0.5
    endloop
  endfacet
  facet normal -1 0 0
    outer loop
      vertex 1 0 0.5
      vertex 1 0.699997 2.45
      vertex 1 0.699997 0.5
    endloop
  endfacet
  facet normal -1 -0 0
    outer loop
      vertex 1 0.699997 2.45
      vertex 1 0 0.5
      vertex 1 0 2.45
    endloop
  endfacet
  facet normal 1 -0 0
    outer loop
      vertex 11 0 2.45
      vertex 11 0.699997 0.5
      vertex 11 0.699997 2.45
    endloop
  endfacet
  facet normal 1 0 0
    outer loop
      vertex 11 0.699997 0.5
      vertex 11 0 2.45
      vertex 11 0 0.5
    endloop
  endfacet
  facet normal -0 0 1
    outer loop
      vertex 1 0.699997 2.45
      vertex 11 0 2.45
      vertex 11 0.699997 2.45
    endloop
  endfacet
  facet normal 0 0 1
    outer loop
      vertex 11 0 2.45
      vertex 1 0.699997 2.45
      vertex 1 0 2.45
    endloop
  endfacet
  facet normal 0 1 -0
    outer loop
      vertex 11 0.699997 0.5
      vertex 1 0.699997 2.45
      vertex 11 0.699997 2.45
    endloop
  endfacet
  facet normal 0 1 0
    outer loop
      vertex 1 0.699997 2.45
      vertex 11 0.699997 0.5
      vertex 1 0.699997 0.5
    endloop
  endfacet
  facet normal 0 -1 0
    outer loop
      vertex 0 0 0
      vertex 1 0 0.5
      vertex 0 0 0.5
    endloop
  endfacet
  facet normal 0 -1 -0
    outer loop
      vertex 1 0 0.5
      vertex 0 0 0
      vertex 11 0 0.5
    endloop
  endfacet
  facet normal 0 -1 0
    outer loop
      vertex 12 0 0
      vertex 11 0 0.5
      vertex 0 0 0
    endloop
  endfacet
  facet normal 0 -1 0
    outer loop
      vertex 11 0 0.5
      vertex 12 0 0
      vertex 12 0 0.5
    endloop
  endfacet
  facet normal 0 -1 0
    outer loop
      vertex 1 0 0.5
      vertex 11 0 2.45
      vertex 1 0 2.45
    endloop
  endfacet
  facet normal 0 -1 -0
    outer loop
      vertex 11 0 2.45
      vertex 1 0 0.5
      vertex 11 0 0.5
    endloop
  endfacet
  facet normal -1 0 0
    outer loop
      vertex 1 14.3 0.5
      vertex 1 15 2.45
      vertex 1 15 0.5
    endloop
  endfacet
  facet normal -1 -0 0
    outer loop
      vertex 1 15 2.45
      vertex 1 14.3 0.5
      vertex 1 14.3 2.45
    endloop
  endfacet
  facet normal 1 -0 0
    outer loop
      vertex 11 14.3 2.45
      vertex 11 15 0.5
      vertex 11 15 2.45
    endloop
  endfacet
  facet normal 1 0 0
    outer loop
      vertex 11 15 0.5
      vertex 11 14.3 2.45
      vertex 11 14.3 0.5
    endloop
  endfacet
  facet normal 0 1 -0
    outer loop
      vertex 11 15 0.5
      vertex 1 15 2.45
      vertex 11 15 2.45
    endloop
  endfacet
  facet normal 0 1 0
    outer loop
      vertex 1 15 2.45
      vertex 11 15 0.5
      vertex 1 15 0.5
    endloop
  endfacet
  facet normal -0 0 1
    outer loop
      vertex 1 15 2.45
      vertex 11 14.3 2.45
      vertex 11 15 2.45
    endloop
  endfacet
  facet normal 0 0 1
    outer loop
      vertex 11 14.3 2.45
      vertex 1 15 2.45
      vertex 1 14.3 2.45
    endloop
  endfacet
  facet normal 0 -1 0
    outer loop
      vertex 1 14.3 0.5
      vertex 11 14.3 2.45
      vertex 1 14.3 2.45
    endloop
  endfacet
  facet normal 0 -1 -0
    outer loop
      vertex 11 14.3 2.45
      vertex 1 14.3 0.5
      vertex 11 14.3 0.5
    endloop
  endfacet
  facet normal -1 0 0
    outer loop
      vertex 0 0 0
      vertex 0 15 0.5
      vertex 0 15 0
    endloop
  endfacet
  facet normal -1 -0 0
    outer loop
      vertex 0 15 0.5
      vertex 0 0 0
      vertex 0 0 0.5
    endloop
  endfacet
  facet normal 1 -0 0
    outer loop
      vertex 12 0 0.5
      vertex 12 15 0
      vertex 12 15 0.5
    endloop
  endfacet
  facet normal 1 0 0
    outer loop
      vertex 12 15 0
      vertex 12 0 0.5
      vertex 12 0 0
    endloop
  endfacet
  facet normal 0 0 -1
    outer loop
      vertex 0 0 0
      vertex 12 15 0
      vertex 12 0 0
    endloop
  endfacet
  facet normal -0 0 -1
    outer loop
      vertex 12 15 0
      vertex 0 0 0
      vertex 0 15 0
    endloop
  endfacet
  facet normal -0 0 1
    outer loop
      vertex 1 10.875 0.5
      vertex 4.28333 10.525 0.5
      vertex 4.28333 10.875 0.5
    endloop
  endfacet
  facet normal 0 0 1
    outer loop
      vertex 4.28333 10.525 0.5
      vertex 1 10.875 0.5
      vertex 4.28333 4.47499 0.5
    endloop
  endfacet
  facet normal 0 0 1
    outer loop
      vertex 1 4.12501 0.5
      vertex 4.28333 4.47499 0.5
      vertex 1 10.875 0.5
    endloop
  endfacet
  facet normal 0 0 1
    outer loop
      vertex 4.28333 4.47499 0.5
      vertex 1 4.12501 0.5
      vertex 4.28333 4.12501 0.5
    endloop
  endfacet
  facet normal 0 0 1
    outer loop
      vertex 7.56665 11.225 0.5
      vertex 4.33333 11.575 0.5
      vertex 4.33333 11.225 0.5
    endloop
  endfacet
  facet normal 0 0 1
    outer loop
      vertex 7.56665 3.77501 0.5
      vertex 4.33333 3.77501 0.5
      vertex 7.56665 3.425 0.5
    endloop
  endfacet
  facet normal -0 0 1
    outer loop
      vertex 4.28333 10.525 0.5
      vertex 7.61665 4.47499 0.5
      vertex 7.61665 10.525 0.5
    endloop
  endfacet
  facet normal 0 0 1
    outer loop
      vertex 7.61665 4.47499 0.5
      vertex 4.28333 10.525 0.5
      vertex 4.28333 4.47499 0.5
    endloop
  endfacet
  facet normal 0 0 1
    outer loop
      vertex 7.61665 10.525 0.5
      vertex 10.9 10.875 0.5
      vertex 7.61665 10.875 0.5
    endloop
  endfacet
  facet normal 0 0 1
    outer loop
      vertex 10.9 10.875 0.5
      vertex 7.61665 10.525 0.5
      vertex 10.9 4.12501 0.5
    endloop
  endfacet
  facet normal -0 0 1
    outer loop
      vertex 7.61665 4.47499 0.5
      vertex 10.9 4.12501 0.5
      vertex 7.61665 10.525 0.5
    endloop
  endfacet
  facet normal 0 0 1
    outer loop
      vertex 10.9 4.12501 0.5
      vertex 7.61665 4.47499 0.5
      vertex 7.61665 4.12501 0.5
    endloop
  endfacet
  facet normal 0 0 1
    outer loop
      vertex 12 15 0.5
      vertex 10.9 10.875 0.5
      vertex 12 0 0.5
    endloop
  endfacet
  facet normal 0 0 1
    outer loop
      vertex 11 14.3 0.5
      vertex 7.56665 11.575 0.5
      vertex 10.9 11.575 0.5
    endloop
  endfacet
  facet normal 0 0 1
    outer loop
      vertex 7.56665 11.575 0.5
      vertex 4.33333 11.575 0.5
      vertex 7.56665 11.225 0.5
    endloop
  endfacet
  facet normal -0 0 1
    outer loop
      vertex 1 14.3 0.5
      vertex 7.56665 11.575 0.5
      vertex 11 14.3 0.5
    endloop
  endfacet
  facet normal 0 0 1
    outer loop
      vertex 7.56665 11.575 0.5
      vertex 1 14.3 0.5
      vertex 4.33333 11.575 0.5
    endloop
  endfacet
  facet normal 0 0 1
    outer loop
      vertex 4.33333 11.575 0.5
      vertex 1 14.3 0.5
      vertex 1 11.575 0.5
    endloop
  endfacet
  facet normal 0 0 1
    outer loop
      vertex 11 14.3 0.5
      vertex 12 15 0.5
      vertex 11 15 0.5
    endloop
  endfacet
  facet normal 0 0 1
    outer loop
      vertex 12 15 0.5
      vertex 1 15 0.5
      vertex 11 15 0.5
    endloop
  endfacet
  facet normal 0 0 1
    outer loop
      vertex 0 15 0.5
      vertex 1 14.3 0.5
      vertex 1 15 0.5
    endloop
  endfacet
  facet normal 0 0 1
    outer loop
      vertex 1 14.3 0.5
      vertex 0 15 0.5
      vertex 1 11.575 0.5
    endloop
  endfacet
  facet normal 0 0 1
    outer loop
      vertex 1 11.575 0.5
      vertex 0 15 0.5
      vertex 1 10.875 0.5
    endloop
  endfacet
  facet normal 0 0 1
    outer loop
      vertex 1 10.875 0.5
      vertex 0 15 0.5
      vertex 1 4.12501 0.5
    endloop
  endfacet
  facet normal 0 0 1
    outer loop
      vertex 0 0 0.5
      vertex 1 4.12501 0.5
      vertex 0 15 0.5
    endloop
  endfacet
  facet normal 0 0 1
    outer loop
      vertex 1 4.12501 0.5
      vertex 0 0 0.5
      vertex 1 3.425 0.5
    endloop
  endfacet
  facet normal -0 0 1
    outer loop
      vertex 0 15 0.5
      vertex 1 15 0.5
      vertex 12 15 0.5
    endloop
  endfacet
  facet normal 0 0 1
    outer loop
      vertex 1 3.425 0.5
      vertex 0 0 0.5
      vertex 1 0.699997 0.5
    endloop
  endfacet
  facet normal 0 0 1
    outer loop
      vertex 1 0.699997 0.5
      vertex 0 0 0.5
      vertex 1 0 0.5
    endloop
  endfacet
  facet normal 0 0 1
    outer loop
      vertex 10.9 11.575 0.5
      vertex 12 15 0.5
      vertex 11 14.3 0.5
    endloop
  endfacet
  facet normal 0 0 1
    outer loop
      vertex 10.9 10.875 0.5
      vertex 12 15 0.5
      vertex 10.9 11.575 0.5
    endloop
  endfacet
  facet normal 0 0 1
    outer loop
      vertex 12 0 0.5
      vertex 11 0.699997 0.5
      vertex 11 0 0.5
    endloop
  endfacet
  facet normal -0 0 1
    outer loop
      vertex 10.9 4.12501 0.5
      vertex 12 0 0.5
      vertex 10.9 10.875 0.5
    endloop
  endfacet
  facet normal -0 0 1
    outer loop
      vertex 10.9 3.425 0.5
      vertex 12 0 0.5
      vertex 10.9 4.12501 0.5
    endloop
  endfacet
  facet normal 0 0 1
    outer loop
      vertex 12 0 0.5
      vertex 10.9 3.425 0.5
      vertex 11 0.699997 0.5
    endloop
  endfacet
  facet normal -0 0 1
    outer loop
      vertex 7.56665 3.425 0.5
      vertex 11 0.699997 0.5
      vertex 10.9 3.425 0.5
    endloop
  endfacet
  facet normal 0 0 1
    outer loop
      vertex 4.33333 3.425 0.5
      vertex 7.56665 3.425 0.5
      vertex 4.33333 3.77501 0.5
    endloop
  endfacet
  facet normal 0 0 1
    outer loop
      vertex 1 0.699997 0.5
      vertex 7.56665 3.425 0.5
      vertex 4.33333 3.425 0.5
    endloop
  endfacet
  facet normal 0 0 1
    outer loop
      vertex 1 0.699997 0.5
      vertex 4.33333 3.425 0.5
      vertex 1 3.425 0.5
    endloop
  endfacet
  facet normal 0 0 1
    outer loop
      vertex 7.56665 3.425 0.5
      vertex 1 0.699997 0.5
      vertex 11 0.699997 0.5
    endloop
  endfacet
  facet normal 0 1 -0
    outer loop
      vertex 12 15 0
      vertex 0 15 0.5
      vertex 12 15 0.5
    endloop
  endfacet
  facet normal 0 1 0
    outer loop
      vertex 0 15 0.5
      vertex 12 15 0
      vertex 0 15 0
    endloop
  endfacet
endsolid OpenSCAD_Model
